#!OML:ASF H:\Terrain\Patient Classification 1\Animal1\Tuesday\Animal1.ASF
:FULLY-SPECIFIED
:DEGREES
1676
root 27.1118 16.7052 -0.175897 22.417 -0.367315 -0.363499
lowerback 13.5933 1.32979 0.725607
upperback 5.4101 1.84217 0.474532
thorax -1.9225 0.912966 -0.189351
lowerneck 7.59453 9.00901 1.14612
upperneck -13.8748 12.7704 1.64917
head -5.47261 6.09777 -0.555986
rclavicle 2.60408e-014 3.97569e-015
rhumerus -46.7523 -2.73208 -61.175
rradius 106.006
rwrist 2.05228
rhand -6.08815 12.441
rfingers 7.12502
rthumb 19.7476 -16.5759
lclavicle 2.60408e-014 3.97569e-015
lhumerus -23.9328 -17.0722 36.5519
lradius 94.621
lwrist -53.054
lhand 11.4732 66.1426
lfingers 7.12502
lthumb 36.5223 267.671
rfemur -29.2012 24.3224 0.0948281
rtibia 18.1719
rfoot -7.71295 -37.2891
rtoes 7.3024
lfemur -42.9583 -9.98187 -4.57273
ltibia 26.3312
lfoot -8.01646 6.85008
ltoes -21.2258
1677
root 27.117 16.7063 -0.163826 22.3762 -0.564638 -0.201931
lowerback 13.697 1.35468 0.676284
upperback 5.49747 1.87089 0.569218
thorax -1.89129 0.925728 -0.0685787
lowerneck 7.82584 8.90363 0.840528
upperneck -14.3668 12.6041 1.54608
head -5.67716 6.02508 -0.558454
rclavicle -1.47101e-014 0
rhumerus -46.6799 -2.68265 -60.7257
rradius 105.518
rwrist 2.27553
rhand -6.14054 13.0115
rfingers 7.12502
rthumb 19.6973 -16.0106
lclavicle -1.47101e-014 0
lhumerus -27.3371 -18.4982 38.7585
lradius 94.8454
lwrist -52.7841
lhand 11.6491 64.8719
lfingers 7.12502
lthumb 36.6887 268.984
rfemur -29.0711 24.3619 -0.116307
rtibia 18.0051
rfoot -7.2655 -37.2678
rtoes 6.39204
lfemur -42.8785 -9.9015 -4.87842
ltibia 26.5106
lfoot -8.11298 6.8352
ltoes -22.2495
1678
root 27.1214 16.708 -0.149626 22.3366 -0.734409 -0.180609
lowerback 13.7265 1.39901 0.728151
upperback 5.59858 1.93763 0.695197
thorax -1.80357 0.95828 0.0242854
lowerneck 7.83326 8.87542 0.455406
upperneck -14.5925 12.5311 1.56362
head -5.77415 6.00341 -0.498954
rclavicle -1.63003e-014 -3.57812e-015
rhumerus -46.8318 -2.70413 -60.3884
rradius 105.391
rwrist 2.53705
rhand -6.29059 12.8019
rfingers 7.12502
rthumb 19.553 -16.2348
lclavicle -1.63003e-014 -3.57812e-015
lhumerus -30.7452 -19.9023 41.2389
lradius 95.17
lwrist -52.4131
lhand 12.0105 63.8621
lfingers 7.12502
lthumb 37.0307 89.9186
rfemur -28.9618 24.4908 -0.188108
rtibia 17.8422
rfoot -6.79969 -37.3353
rtoes 5.10321
lfemur -42.8499 -9.85876 -4.96242
ltibia 26.7089
lfoot -8.42154 6.88768
ltoes -20.8233
1679
root 27.125 16.7078 -0.135887 22.3536 -0.84221 -0.449611
lowerback 13.731 1.41496 1.01733
upperback 5.63599 1.99816 0.855736
thorax -1.76217 0.989902 0.0202052
lowerneck 7.75111 8.91256 0.308903
upperneck -14.5368 12.5588 1.56418
head -5.75203 6.0268 -0.473188
rclavicle 1.07344e-014 1.15295e-014
rhumerus -46.9941 -2.77572 -60.2082
rradius 105.304
rwrist 2.85464
rhand -6.0916 12.5516
rfingers 7.12502
rthumb 19.7443 -16.4657
lclavicle 1.07344e-014 1.15295e-014
lhumerus -34.1341 -21.0515 43.8115
lradius 95.5443
lwrist -52.0235
lhand 12.4378 63.0325
lfingers 7.12502
lthumb 37.4347 88.9833
rfemur -28.983 24.8051 -0.0246929
rtibia 17.7583
rfoot -7.3095 -37.3982
rtoes 5.72081
lfemur -42.8716 -9.7659 -4.67718
ltibia 26.8732
lfoot -8.59807 6.97273
ltoes -19.779
1680
root 27.1288 16.7044 -0.125389 22.3852 -0.886675 -0.59996
lowerback 13.714 1.41272 1.23601
upperback 5.68816 2.02431 0.973763
thorax -1.69473 1.00457 0.0175459
lowerneck 7.34014 8.9019 0.00158889
upperneck -14.2245 12.5219 1.80975
head -5.62 6.01904 -0.320593
rclavicle -5.1684e-015 7.15625e-015
rhumerus -46.9793 -2.89391 -60.0542
rradius 105.126
rwrist 3.25621
rhand -6.59967 12.807
rfingers 7.12502
rthumb 19.2558 -16.2597
lclavicle -5.1684e-015 7.15625e-015
lhumerus -37.1915 -22.0239 46.3837
lradius 95.7605
lwrist -51.5729
lhand 12.849 62.2677
lfingers 7.12502
lthumb 37.8233 88.1148
rfemur -29.0243 24.9991 0.0398787
rtibia 17.7564
rfoot -8.0926 -37.404
rtoes 7.16879
lfemur -42.8909 -9.64855 -4.57021
ltibia 27.0034
lfoot -8.72216 7.01697
ltoes -19.3904
1681
root 27.129 16.7033 -0.12007 22.4499 -1.00615 -0.41564
lowerback 13.6715 1.46212 1.09377
upperback 5.76786 2.06912 0.979447
thorax -1.59357 1.02551 0.0994007
lowerneck 6.89547 8.85586 -0.199785
upperneck -14.0237 12.442 1.94554
head -5.50281 5.99179 -0.215538
rclavicle -1.19271e-014 1.59028e-015
rhumerus -46.9337 -2.9886 -59.8766
rradius 105.166
rwrist 3.35354
rhand -7.03593 12.4141
rfingers 7.12502
rthumb 18.8363 -16.6939
lclavicle -1.19271e-014 1.59028e-015
lhumerus -39.8986 -22.8543 48.9637
lradius 95.9583
lwrist -50.8509
lhand 13.5672 61.6417
lfingers 7.12502
lthumb 38.5013 87.3028
rfemur -29.1718 25.0302 -0.25122
rtibia 17.8331
rfoot -7.87699 -37.477
rtoes 6.81958
lfemur -42.9792 -9.61792 -4.79948
ltibia 27.1091
lfoot -8.83437 7.0227
ltoes -17.9784
